<svg xmlns="http://www.w3.org/2000/svg" viewBox="0 0 96 96" role="img" aria-labelledby="title">
  <title>MEIJIA DENTAL mark</title>
  <defs>
    <linearGradient id="markGradient" x1="14" y1="12" x2="82" y2="84" gradientUnits="userSpaceOnUse">
      <stop stop-color="#13aab0"/>
      <stop offset="0.58" stop-color="#0b7379"/>
      <stop offset="1" stop-color="#10212b"/>
    </linearGradient>
    <linearGradient id="accentGradient" x1="62" y1="18" x2="84" y2="44" gradientUnits="userSpaceOnUse">
      <stop stop-color="#f0b65f"/>
      <stop offset="1" stop-color="#df6d5c"/>
    </linearGradient>
  </defs>
  <rect width="96" height="96" rx="24" fill="url(#markGradient)"/>
  <path d="M71.5 17.5c6.4 3.8 10.7 10.8 10.7 18.9 0 8-4.3 15-10.7 18.8V17.5Z" fill="url(#accentGradient)" opacity=".95"/>
  <path
    d="M48 18.8c-5.3 0-8.8 3.2-13.2 3.2-3.1 0-6.1-2.5-10.5-2.5-7.7 0-13.4 6.7-13.4 16.2 0 8.8 3.5 16.8 8.2 22.2 3.7 4.3 5.1 10 6.4 15.7 1.1 4.9 3 7.9 6.1 7.9 3.3 0 4.6-3.7 6.2-9.9 1.7-6.7 4.3-10.6 10.2-10.6s8.5 3.9 10.2 10.6c1.6 6.2 2.9 9.9 6.2 9.9 3.1 0 5-3 6.1-7.9 1.3-5.7 2.7-11.4 6.4-15.7 4.7-5.4 8.2-13.4 8.2-22.2 0-9.5-5.7-16.2-13.4-16.2-4.4 0-7.4 2.5-10.5 2.5-4.4 0-7.9-3.2-13.2-3.2Z"
    fill="#fff"
  />
  <path
    d="M29 43.2 37.7 54 48 38.8 58.3 54 67 43.2"
    fill="none"
    stroke="#0b7379"
    stroke-linecap="round"
    stroke-linejoin="round"
    stroke-width="5.4"
  />
  <path d="M26 34.5c5.8 2.3 11.2 2.3 16.1 0" fill="none" stroke="#dff7f7" stroke-linecap="round" stroke-width="4"/>
</svg>
